<svg xmlns="http://www.w3.org/2000/svg" viewBox="0 0 576 512" aria-hidden="true" focusable="false" role="img" class="svg-inline--fa fa-cart-plus fa-w-18">
  <path fill="currentColor" d="M528.12 301.319l47.273-208A16 16 0 0 0 559.768 64H128L119.98 23.9A16 16 0 0 0 104.24 12.8H16A16 16 0 0 0 0 28.8V44.8A16 16 0 0 0 16 60.8h61.69l60.93 268.15a16 16 0 0 0 15.64 12.35h310.35a16 16 0 0 0 15.64-12.35l25.54-112.56a16 16 0 0 0-15.61-19.64H171.61l-9.35-41.18H528.11zM256 400a48 48 0 1 0 48 48 48 48 0 0 0-48-48zm192 0a48 48 0 1 0 48 48 48 48 0 0 0-48-48zM552 120h-88v-24a16 16 0 0 0-16-16H432a16 16 0 0 0-16 16v24h-88a16 16 0 0 0-16 16v16a16 16 0 0 0 16 16h88v24a16 16 0 0 0 16 16h16a16 16 0 0 0 16-16v-24h88a16 16 0 0 0 16-16v-16a16 16 0 0 0-16-16z"/>
</svg>
