<svg xmlns="http://www.w3.org/2000/svg" width="20" height="50" viewBox="60 0 400 380" aria-hidden="true" focusable="false" role="img">
  <path fill="currentColor" d="M208 352c0-44.2 35.8-80 80-80s80 35.8 80 80-35.8 80-80 80-80-35.8-80-80zm320 0c0-44.2 35.8-80 80-80s80 35.8 80 80-35.8 80-80 80-80-35.8-80-80zM96 128h32l16 64h416c8.8 0 16 7.2 16 16v32c0 8.8-7.2 16-16 16H176l-16-64H96c-8.8 0-16-7.2-16-16v-32c0-8.8 7.2-16 16-16zm368-96c8.8 0 16 7.2 16 16v48h-32V64h-64V32h-64v32H128v48h192l-16 64H64L32 128h32l32-128h336z"/>
</svg>
